<svg xmlns="http://www.w3.org/2000/svg" width="22" height="22" viewBox="0 0 22 22">
  <defs>
    <style>
      .cls-1 {
        fill: #808080;
        fill-rule: evenodd;
      }
    </style>
  </defs>
  <path id="insta.svg" class="cls-1" d="M654,1536.98c2.937,0,3.285.01,4.445,0.07a6.19,6.19,0,0,1,2.042.37,3.693,3.693,0,0,1,2.088,2.09,6.1,6.1,0,0,1,.379,2.05c0.053,1.15.064,1.5,0.064,4.44s-0.011,3.29-.064,4.44a6.1,6.1,0,0,1-.379,2.05,3.693,3.693,0,0,1-2.088,2.09,6.19,6.19,0,0,1-2.042.37c-1.16.06-1.508,0.07-4.445,0.07s-3.285-.01-4.445-0.07a6.19,6.19,0,0,1-2.042-.37,3.693,3.693,0,0,1-2.088-2.09,6.1,6.1,0,0,1-.379-2.05c-0.053-1.15-.064-1.5-0.064-4.44s0.011-3.29.064-4.44a6.1,6.1,0,0,1,.379-2.05,3.693,3.693,0,0,1,2.088-2.09,6.19,6.19,0,0,1,2.042-.37c1.16-.06,1.508-0.07,4.445-0.07m0-1.98c-2.987,0-3.362.01-4.535,0.07a8.034,8.034,0,0,0-2.67.51,5.274,5.274,0,0,0-1.949,1.27,5.4,5.4,0,0,0-1.269,1.94,8.119,8.119,0,0,0-.511,2.67c-0.053,1.18-.066,1.55-0.066,4.54s0.013,3.36.066,4.54a8.119,8.119,0,0,0,.511,2.67,5.4,5.4,0,0,0,1.269,1.94,5.274,5.274,0,0,0,1.949,1.27,8.034,8.034,0,0,0,2.67.51c1.173,0.06,1.548.07,4.535,0.07s3.362-.01,4.535-0.07a8.034,8.034,0,0,0,2.67-.51,5.274,5.274,0,0,0,1.949-1.27,5.381,5.381,0,0,0,1.268-1.94,8.09,8.09,0,0,0,.512-2.67c0.053-1.18.066-1.55,0.066-4.54s-0.013-3.36-.066-4.54a8.09,8.09,0,0,0-.512-2.67,5.381,5.381,0,0,0-1.268-1.94,5.274,5.274,0,0,0-1.949-1.27,8.034,8.034,0,0,0-2.67-.51c-1.173-.06-1.548-0.07-4.535-0.07h0Zm0,5.35a5.65,5.65,0,1,0,5.649,5.65A5.65,5.65,0,0,0,654,1540.35Zm0,9.32a3.67,3.67,0,1,1,3.667-3.67A3.667,3.667,0,0,1,654,1549.67Zm7.192-9.54a1.32,1.32,0,1,1-1.32-1.32A1.319,1.319,0,0,1,661.192,1540.13Z" transform="translate(-643 -1535)"/>
</svg>
